<mxfile host="app.diagrams.net" modified="2023-08-21T04:38:35.684Z" agent="Mozilla/5.0 (Windows NT 10.0; Win64; x64) AppleWebKit/537.36 (KHTML, like Gecko) Chrome/115.0.0.0 Safari/537.36 Edg/115.0.1901.203" etag="1SBWVeikjTy8yKb3ghKn" version="21.6.8" type="github">
  <diagram name="第 1 页" id="cqqPodx_gIHTt5UWhKDk">
    <mxGraphModel dx="1145" dy="1703" grid="1" gridSize="10" guides="1" tooltips="1" connect="1" arrows="1" fold="1" page="1" pageScale="1" pageWidth="827" pageHeight="1169" math="0" shadow="0">
      <root>
        <mxCell id="0" />
        <mxCell id="1" parent="0" />
        <mxCell id="y1A_n7PDeES1u6oTT7AH-3" style="edgeStyle=orthogonalEdgeStyle;rounded=0;orthogonalLoop=1;jettySize=auto;html=1;entryX=0;entryY=0.451;entryDx=0;entryDy=0;entryPerimeter=0;" edge="1" parent="1" source="E8Qx4PALKQgT2wIL797c-1" target="y1A_n7PDeES1u6oTT7AH-2">
          <mxGeometry relative="1" as="geometry" />
        </mxCell>
        <mxCell id="E8Qx4PALKQgT2wIL797c-1" value="" style="verticalLabelPosition=bottom;sketch=0;aspect=fixed;html=1;verticalAlign=top;strokeColor=none;align=center;outlineConnect=0;shape=mxgraph.citrix.users;" parent="1" vertex="1">
          <mxGeometry x="60" y="388" width="64.5" height="55" as="geometry" />
        </mxCell>
        <mxCell id="y1A_n7PDeES1u6oTT7AH-12" value="" style="edgeStyle=orthogonalEdgeStyle;rounded=0;orthogonalLoop=1;jettySize=auto;html=1;" edge="1" parent="1" source="E8Qx4PALKQgT2wIL797c-2" target="y1A_n7PDeES1u6oTT7AH-11">
          <mxGeometry relative="1" as="geometry" />
        </mxCell>
        <mxCell id="y1A_n7PDeES1u6oTT7AH-13" style="edgeStyle=orthogonalEdgeStyle;rounded=0;orthogonalLoop=1;jettySize=auto;html=1;" edge="1" parent="1" source="E8Qx4PALKQgT2wIL797c-2" target="y1A_n7PDeES1u6oTT7AH-2">
          <mxGeometry relative="1" as="geometry">
            <mxPoint x="637.5" y="280" as="targetPoint" />
            <Array as="points">
              <mxPoint x="640" y="280" />
              <mxPoint x="275" y="280" />
            </Array>
          </mxGeometry>
        </mxCell>
        <mxCell id="E8Qx4PALKQgT2wIL797c-2" value="" style="verticalLabelPosition=bottom;sketch=0;aspect=fixed;html=1;verticalAlign=top;strokeColor=none;align=center;outlineConnect=0;shape=mxgraph.citrix.calendar;" parent="1" vertex="1">
          <mxGeometry x="600" y="368.5" width="75" height="100" as="geometry" />
        </mxCell>
        <mxCell id="rkvHEvfjf1KEYPUZyGFZ-4" value="&lt;font style=&quot;font-size: 18px;&quot;&gt;管理员&lt;/font&gt;" style="text;strokeColor=none;align=center;fillColor=none;html=1;verticalAlign=middle;whiteSpace=wrap;rounded=0;" parent="1" vertex="1">
          <mxGeometry x="37.25" y="480" width="110" height="40" as="geometry" />
        </mxCell>
        <mxCell id="rkvHEvfjf1KEYPUZyGFZ-9" value="&lt;font style=&quot;font-size: 18px;&quot;&gt;使用手持终端进行盘点&lt;/font&gt;" style="text;strokeColor=none;align=center;fillColor=none;html=1;verticalAlign=middle;whiteSpace=wrap;rounded=0;" parent="1" vertex="1">
          <mxGeometry x="140" y="370" width="110" height="40" as="geometry" />
        </mxCell>
        <mxCell id="rkvHEvfjf1KEYPUZyGFZ-10" value="&lt;font style=&quot;font-size: 18px;&quot;&gt;核对清单&lt;/font&gt;" style="text;strokeColor=none;align=center;fillColor=none;html=1;verticalAlign=middle;whiteSpace=wrap;rounded=0;" parent="1" vertex="1">
          <mxGeometry x="578.75" y="475.5" width="117.5" height="44.5" as="geometry" />
        </mxCell>
        <mxCell id="cWcBK4I3sTEnP_NxPIof-5" value="&lt;span style=&quot;font-size: 18px;&quot;&gt;一致&lt;/span&gt;" style="text;strokeColor=none;align=center;fillColor=none;html=1;verticalAlign=middle;whiteSpace=wrap;rounded=0;" parent="1" vertex="1">
          <mxGeometry x="660" y="370" width="110" height="40" as="geometry" />
        </mxCell>
        <mxCell id="y1A_n7PDeES1u6oTT7AH-5" value="" style="edgeStyle=orthogonalEdgeStyle;rounded=0;orthogonalLoop=1;jettySize=auto;html=1;" edge="1" parent="1" source="y1A_n7PDeES1u6oTT7AH-2" target="y1A_n7PDeES1u6oTT7AH-4">
          <mxGeometry relative="1" as="geometry" />
        </mxCell>
        <mxCell id="y1A_n7PDeES1u6oTT7AH-2" value="" style="verticalLabelPosition=bottom;sketch=0;aspect=fixed;html=1;verticalAlign=top;strokeColor=none;align=center;outlineConnect=0;shape=mxgraph.citrix.pda;" vertex="1" parent="1">
          <mxGeometry x="260" y="388" width="30" height="61" as="geometry" />
        </mxCell>
        <mxCell id="y1A_n7PDeES1u6oTT7AH-9" value="" style="edgeStyle=orthogonalEdgeStyle;rounded=0;orthogonalLoop=1;jettySize=auto;html=1;" edge="1" parent="1" source="y1A_n7PDeES1u6oTT7AH-4" target="E8Qx4PALKQgT2wIL797c-2">
          <mxGeometry relative="1" as="geometry" />
        </mxCell>
        <mxCell id="y1A_n7PDeES1u6oTT7AH-4" value="" style="verticalLabelPosition=bottom;sketch=0;aspect=fixed;html=1;verticalAlign=top;strokeColor=none;align=center;outlineConnect=0;shape=mxgraph.citrix.thin_client;" vertex="1" parent="1">
          <mxGeometry x="414" y="383" width="71" height="71" as="geometry" />
        </mxCell>
        <mxCell id="y1A_n7PDeES1u6oTT7AH-8" value="&lt;font style=&quot;font-size: 18px;&quot;&gt;盘点信息传入平台&lt;/font&gt;" style="text;strokeColor=none;align=center;fillColor=none;html=1;verticalAlign=middle;whiteSpace=wrap;rounded=0;" vertex="1" parent="1">
          <mxGeometry x="290" y="370" width="110" height="40" as="geometry" />
        </mxCell>
        <mxCell id="y1A_n7PDeES1u6oTT7AH-10" value="&lt;font style=&quot;font-size: 18px;&quot;&gt;盘点信息核对&lt;/font&gt;" style="text;strokeColor=none;align=center;fillColor=none;html=1;verticalAlign=middle;whiteSpace=wrap;rounded=0;" vertex="1" parent="1">
          <mxGeometry x="482.5" y="370" width="110" height="40" as="geometry" />
        </mxCell>
        <mxCell id="y1A_n7PDeES1u6oTT7AH-11" value="&lt;font style=&quot;font-size: 18px;&quot;&gt;完成盘点&lt;/font&gt;" style="whiteSpace=wrap;html=1;aspect=fixed;" vertex="1" parent="1">
          <mxGeometry x="760" y="378.5" width="80" height="80" as="geometry" />
        </mxCell>
        <mxCell id="y1A_n7PDeES1u6oTT7AH-14" value="&lt;span style=&quot;font-size: 18px;&quot;&gt;不一致&lt;/span&gt;" style="text;strokeColor=none;align=center;fillColor=none;html=1;verticalAlign=middle;whiteSpace=wrap;rounded=0;" vertex="1" parent="1">
          <mxGeometry x="400" y="240" width="110" height="40" as="geometry" />
        </mxCell>
        <mxCell id="y1A_n7PDeES1u6oTT7AH-15" value="&lt;font style=&quot;font-size: 18px;&quot;&gt;平台&lt;/font&gt;" style="text;strokeColor=none;align=center;fillColor=none;html=1;verticalAlign=middle;whiteSpace=wrap;rounded=0;" vertex="1" parent="1">
          <mxGeometry x="394.5" y="477.75" width="110" height="40" as="geometry" />
        </mxCell>
        <mxCell id="y1A_n7PDeES1u6oTT7AH-16" value="&lt;font style=&quot;font-size: 18px;&quot;&gt;手持设备&lt;/font&gt;" style="text;strokeColor=none;align=center;fillColor=none;html=1;verticalAlign=middle;whiteSpace=wrap;rounded=0;" vertex="1" parent="1">
          <mxGeometry x="220" y="481.63" width="110" height="32.25" as="geometry" />
        </mxCell>
      </root>
    </mxGraphModel>
  </diagram>
</mxfile>
